<svg xmlns="http://www.w3.org/2000/svg" version="1.1" xmlns:xlink="http://www.w3.org/1999/xlink" xmlns:svgjs="http://svgjs.dev/svgjs" width="2000" height="1515" viewBox="0 0 2000 1515"><g transform="matrix(1,0,0,1,0.15573578893418016,0.6133603238865817)"><svg viewBox="0 0 326 247" data-background-color="#333366" preserveAspectRatio="xMidYMid meet" height="1515" width="2000" xmlns="http://www.w3.org/2000/svg" xmlns:xlink="http://www.w3.org/1999/xlink"><g id="tight-bounds" transform="matrix(1,0,0,1,-0.02538438470617166,-0.09999999999999432)"><svg viewBox="0 0 326.05075669383007 247.2" height="247.2" width="326.05075669383007"><g><svg viewBox="0 0 326.05075669383007 247.2" height="247.2" width="326.05075669383007"><g><svg viewBox="0 0 326.05075669383007 247.2" height="247.2" width="326.05075669383007"><g><svg viewBox="0 0 326.05075669383007 247.2" height="247.2" width="326.05075669383007"><g><svg viewBox="0 0 326.05075669383007 247.2" height="247.2" width="326.05075669383007"><g transform="matrix(1,0,0,1,0,0)"><svg width="326.05075669383007" viewBox="1.9000000953674316 -42.95000076293945 56.64999771118164 42.95000076293945" height="247.2" data-palette-color="#ffff33"><g class="undefined-text-0" data-fill-palette-color="primary" id="text-0"><path d="M10.45 0L1.9 0 1.9-42.95 10.4-42.95 10.4-25.75 14.4-42.95 23.05-42.95 18.25-23.3 24.05 0 15.15 0 10.45-20.8 10.45 0ZM39.35 0L28.85 0 24.25-42.95 32.65-42.95 35.05-15.85 37.45-42.95 45.45-42.95 47.75-15.85 50.05-42.95 58.55-42.95 53.85 0 43.55 0 41.4-20.7 39.35 0Z" fill="#ffff33" data-fill-palette-color="primary"></path></g></svg></g></svg></g></svg></g></svg></g></svg></g><defs></defs></svg><rect width="326.05075669383007" height="247.2" fill="none" stroke="none" visibility="hidden"></rect></g></svg></g></svg>